<svg id="Layer_1" data-name="Layer 1" xmlns="http://www.w3.org/2000/svg" viewBox="0 0 130 130">
            <defs>
                <style>.cls-1 {
                    fill: #000000;
                }</style>
            </defs>
            <title>icons</title>
            <path class="cls-1"
                  d="M112.31,120.26,48.92,10.59l5.76-.65a17.37,17.37,0,0,1,2.2-.19H72.65a14.91,14.91,0,0,1,13.72,7.91q19,33,38,66c2.8,4.86,3.12,9.42.95,13.54s-4.55,8.26-7.07,12.63ZM58.72,15.68l53.55,92.66.83-1.46c2.48-4.31,4.8-8.33,7-12.44.75-1.42,1.48-3.78-.84-7.8q-19-33-38-66a9.1,9.1,0,0,0-8.57-4.94H58.72ZM29.57,117.63c-7,0-11.95-2.93-15.23-9-1.88-3.43-3.84-6.81-5.9-10.34l-5.18-9,5.93-.51c.87-.08,1.58-.15,2.28-.15H30.26q23,0,45.91,0a8.05,8.05,0,0,1,7.62,4.43c2.55,4.61,5.18,9.16,7.94,13.93l5.89,10.2-6.41.31c-.87.05-1.54.08-2.21.09H71.56c-14,0-27.88,0-41.82.06Zm-16.41-23,.42.73c2.08,3.58,4.07,7,6,10.49,2.26,4.15,5.5,5.93,10.15,5.87,14-.09,27.91-.07,41.86-.06h16l-1-1.69c-2.78-4.8-5.44-9.39-8-14-.6-1.09-.92-1.34-2.39-1.36q-23,.07-45.94,0ZM74.57,77.24h-62l31-53.67ZM22.83,71.3H64.28L43.55,35.43Z"/>
            <path class="cls-1"
                  d="M112.31,120.26,48.92,10.59l5.76-.65a17.37,17.37,0,0,1,2.2-.19H72.65a14.91,14.91,0,0,1,13.72,7.91q19,33,38,66c2.8,4.86,3.12,9.42.95,13.54s-4.55,8.26-7.07,12.63ZM58.72,15.68l53.55,92.66.83-1.46c2.48-4.31,4.8-8.33,7-12.44.75-1.42,1.48-3.78-.84-7.8q-19-33-38-66a9.1,9.1,0,0,0-8.57-4.94H58.72Z"/>
            <path class="cls-1"
                  d="M29.57,117.63c-7,0-11.95-2.93-15.23-9-1.88-3.43-3.84-6.81-5.9-10.34l-5.18-9,5.93-.51c.87-.08,1.58-.15,2.28-.15H30.26q23,0,45.91,0a8.05,8.05,0,0,1,7.62,4.43c2.55,4.61,5.18,9.16,7.94,13.93l5.89,10.2-6.41.31c-.87.05-1.54.08-2.21.09H71.56c-14,0-27.88,0-41.82.06Zm-16.41-23,.42.73c2.08,3.58,4.07,7,6,10.49,2.26,4.15,5.5,5.93,10.15,5.87,14-.09,27.9-.08,41.86-.06h16l-1-1.69c-2.78-4.8-5.44-9.39-8-14-.59-1.09-.93-1.36-2.35-1.36h0q-23,.07-45.94,0Z"/>
            <path class="cls-1" d="M74.57,77.24h-62l31-53.67ZM22.83,71.3H64.28L43.55,35.43Z"/>
        </svg>