<svg id="Layer_1" data-name="Layer 1" xmlns="http://www.w3.org/2000/svg" viewBox="0 0 130 130">
            <defs>
                <style>.cls-1 {
                    fill: #000000;
                }</style>
            </defs>
            <title>icons</title>
            <path class="cls-1"
                  d="M66.26,119H52.74c-3.66,0-5.53-.82-5.53-5.3l-.06-45.73c-2.35,0-4.58,0-6.81,0a5,5,0,0,1-3.69-1.23,4.66,4.66,0,0,1-1.24-3.47c.08-4.81.07-9.64,0-14.46a4.47,4.47,0,0,1,1.23-3.39,5,5,0,0,1,3.58-1.23c1.2,0,2.4,0,3.6,0s2.26,0,3.39,0c0-4.16-.08-8.21.09-12.25.32-7.26,3.24-12.76,8.69-16.33a25.35,25.35,0,0,1,12.75-4.15c4.76-.22,9.54-.27,14.31-.31l6.65-.09a4.92,4.92,0,0,1,3.38,1.21,4.33,4.33,0,0,1,1.22,3.25c0,5.12,0,10.25,0,15.38a4.42,4.42,0,0,1-1.22,3.29,4.74,4.74,0,0,1-3.49,1.25c-3.63,0-7.26,0-10.88,0a5.83,5.83,0,0,0-1.86.19c0,.06-.06.44-.07,1.28,0,1.13,0,2.26,0,3.4,0,1.29,0,2.58,0,3.88,3.36,0,6.51,0,9.66,0h2.4c.56,0,1.12,0,1.77.08l4,.23-.44,5.62c-.14,1.8-.28,3.55-.44,5.3l-.28,2.89c-.17,1.54-.33,3.08-.42,4.62-.2,3.24-2.22,5-5.47,5-1.91-.05-3.83,0-5.75,0-1.67,0-3.34,0-5,0,0,12.54,0,24.82,0,37.09v8.27c0,4.93-1.86,5.76-6,5.77ZM53.15,113H70.76a.27.27,0,0,1,.09,0v-8.1q0-19,0-38a4.55,4.55,0,0,1,5.19-5c1.91.05,3.82,0,5.75,0s3.58,0,5.36,0c.11-1.52.26-2.88.4-4.25l.28-2.79c.14-1.57.26-3.15.39-4.76H86.43c-3.52,0-7.06,0-10.58,0A5.06,5.06,0,0,1,72,48.82a4.61,4.61,0,0,1-1.2-3.55c.06-1.64,0-3.29,0-4.93,0-1.18,0-2.34,0-3.51.08-6.47,4.23-7.32,7.83-7.34,3.23,0,6.45,0,9.68,0q0-6.26,0-12.47l-5.24.06c-4.7.05-9.4.09-14.1.31a19.46,19.46,0,0,0-9.76,3.18c-3.87,2.54-5.78,6.23-6,11.62-.18,4.38-.13,8.76-.07,13.14a4.77,4.77,0,0,1-1.28,3.58,5,5,0,0,1-3.76,1.23c-1.42,0-2.84,0-4.27,0H41.37c.05,4,.05,7.92,0,11.87,2,0,3.86,0,5.81,0h6Z"/>
        </svg>