<svg id="Layer_1" data-name="Layer 1" xmlns="http://www.w3.org/2000/svg" viewBox="0 0 130 130">
            <defs>
                <style>.cls-1 {
                    fill: #000000;
                }</style>
            </defs>
            <title>icons</title>
            <path class="cls-1"
                  d="M58.12,118.72c-2.2,0-4.4,0-6.6-.14-1.31-.07-2.62-.1-3.94-.14A57.13,57.13,0,0,1,35,117.15a30.27,30.27,0,0,1-14.92-8.46c-4.69-4.86-7.38-11.06-8.2-19-.4-3.8-.5-7.53-.59-11.65-.06-3.08,0-6.16,0-9.24l0-7V60.19c0-3.61-.06-7.21.06-10.81l0-1.33a57,57,0,0,1,1.48-13.42c3.3-12.23,11.28-19.69,23.72-22.18a53.53,53.53,0,0,1,9.88-.93c11.41-.17,22.82-.29,34.23-.22a57.53,57.53,0,0,1,15.12,1.62,29.68,29.68,0,0,1,22.29,27.59c.41,6.7.51,13.5.59,20.08l0,3c.08,5.65.09,11.29-.08,16.94l0,1c-.14,5-.3,10.25-2,15.42A29.23,29.23,0,0,1,103,114.1a34.76,34.76,0,0,1-16.34,4.24c-5.74.19-11.49.24-17.24.28l-6.05.06C61.59,118.7,59.85,118.72,58.12,118.72ZM17.18,67.8v1.06c0,3,0,6.06,0,9.09.08,4,.18,7.59.55,11.17.69,6.52,2.84,11.58,6.57,15.45a24.55,24.55,0,0,0,12.1,6.83,52.74,52.74,0,0,0,11.31,1.11c1.36,0,2.73.07,4.08.14,3.8.19,7.61.15,11.42.09l6.09,0c5.69,0,11.39-.09,17.08-.28A29.15,29.15,0,0,0,100,108.93a23.19,23.19,0,0,0,11-13.74c1.4-4.37,1.54-8.94,1.68-13.79l0-1c.16-5.55.16-11.11.07-16.67l0-3.06c-.09-6.51-.18-13.24-.58-19.8a23.76,23.76,0,0,0-18-22.22,52.46,52.46,0,0,0-13.58-1.42c-11.36-.08-22.74.05-34.11.23a48.19,48.19,0,0,0-8.8.81c-10.18,2-16.45,7.9-19.14,17.91a51.33,51.33,0,0,0-1.28,12l-.05,1.35c-.11,3.52-.08,7-.05,10.57l0,7.66Z"/>
            <path class="cls-1"
                  d="M64.92,94.05A29.08,29.08,0,0,1,44.37,44.44,28.48,28.48,0,0,1,64.7,35.85h.08a29.13,29.13,0,0,1,21,49.51A28.68,28.68,0,0,1,65.28,94Zm-.14-52.27h-.07A22.64,22.64,0,0,0,48.6,48.61a23.25,23.25,0,0,0-6.78,16.65,23.08,23.08,0,0,0,23.1,22.85h.33A23.09,23.09,0,0,0,88.13,64.63,23.1,23.1,0,0,0,64.78,41.78Z"/>
            <path class="cls-1"
                  d="M92.57,43.21h0a9.8,9.8,0,0,1-9.6-9.68,9.61,9.61,0,0,1,2.83-6.84A9.7,9.7,0,0,1,93,23.85a9.33,9.33,0,0,1,6.6,2.84,9.73,9.73,0,0,1-7,16.52Zm0-13.44A3.87,3.87,0,0,0,90,30.9a3.68,3.68,0,0,0-1.08,2.62,3.82,3.82,0,0,0,3.67,3.75l0,3v-3a3.82,3.82,0,0,0,2.77-6.43A3.86,3.86,0,0,0,92.55,29.77Z"/>
        </svg>