 <svg id="Layer_1" data-name="Layer 1" xmlns="http://www.w3.org/2000/svg" viewBox="0 0 130 130">
            <defs>
                <style>.cls-1 {
                    fill: #000000;
                }</style>
            </defs>
            <title>icons</title>
            <path class="cls-1" d="M114.18,108.41H15.82A8.43,8.43,0,0,1,7.4,100V30a8.43,8.43,0,0
            ,1,8.42-8.42h98.36A8.43,8.43,0,0,1,122.6,30v70A8.43,8.43,0,0,1,114.18,108.41ZM13.34,
            31.74V100a2.49,2.49,0,0,0,2.48,2.49h98.36a2.49,2.49,0,0,0,2.48-2.49V31.74L71,77.55a8.62,
            8.62,0,0,1-11.92,0Zm4.19-4.22L63.24,73.36a2.57,2.57,0,0,0,3.52,0l45.71-45.84Z"/>
        </svg>